<svg width="180" height="60" fill="none" xmlns="http://www.w3.org/2000/svg"><g clip-path="url(#clip0)"><path d="M15.27 24.89c0 1.082.962 2.044 2.045 2.044 1.082 0 2.044-.962 2.044-2.044s-.962-2.044-2.044-2.044c-1.203 0-2.045.841-2.045 2.044z" fill="#034EA0"/><path d="M13.226 31.142c1.083 0 4.089 0 4.93 1.563.361.481 1.323 1.683-.12 4.57-1.443 2.885-1.443 5.77-1.082 6.973.962 3.367 3.487 6.012 6.733 6.974h.24c3.608-.962 5.893-4.208 6.614-7.214.12-.842.721-3.247-.962-6.854-1.323-2.886-.601-3.848-.12-4.57.842-1.683 3.246-1.562 5.651-1.562h2.525v-10.22H34.63v7.214h-1.322c-1.203 0-2.285 0-3.367.36-1.924.722-3.247 2.285-3.848 4.57-.601 2.164.12 3.968.842 5.65.36.963.721 1.925.962 2.887.24 2.765-1.443 5.53-3.968 6.733h-.24c-2.285-1.082-4.33-3.607-4.089-6.733.12-.602.36-1.443.842-2.405.721-1.684 1.563-3.848 1.082-6.132-.721-2.525-2.164-4.089-4.449-4.69-1.443-.36-3.968-.24-3.968-.24V20.8H9.98v10.22c.12.121 2.405.121 3.246.121zm-4.208 0v-10.22h-4.93l4.088 5.17-4.088 5.05h4.93z" fill="#034EA0"/><path d="M37.755 13.347c0-4.089 1.924-5.17 4.33-6.133h-19.48c-2.645 0-4.93 1.924-5.41 4.57v-4.57H10.1V19.96h27.655v-6.613z" fill="#00A94E"/><path d="M52.545 43.287h5.651V25.972h6.253v-5.05H46.052v5.05h6.493v17.315zm30.421-5.051H72.024v-4.208h9.62V29.58h-9.62v-3.968h10.701v-4.69H66.373v22.366h16.593v-5.05zm24.529 5.051l-8.657-11.183 8.657-11.182h-7.214l-7.696 11.182 7.816 11.183h7.094zm-15.511-6.854V20.922h-6.132v22.365h6.132v-6.854zm22.725-6.373h.121l8.176 13.227h6.012V20.922h-5.531v13.226h-.12l-8.177-13.226h-6.132v22.365h5.651V30.06zm27.776 13.708c6.974 0 10.942-5.17 10.942-11.664 0-6.493-3.968-11.663-10.942-11.663s-10.942 5.17-10.942 11.663 3.968 11.664 10.942 11.664zm0-18.277c3.727 0 5.17 3.367 5.17 6.613 0 3.367-1.443 6.614-5.17 6.614s-5.17-3.367-5.17-6.614c0-3.246 1.443-6.613 5.17-6.613zm23.928 11.663c0 1.804-1.924 2.165-3.968 2.165-2.645 0-4.93-.602-6.613-1.443l-.602 4.93c2.165.6 4.93.961 7.095.961 5.29 0 10.461-1.563 10.461-7.455 0-8.176-11.303-5.65-11.303-9.258 0-1.924 2.645-2.044 4.329-2.044 1.803 0 3.607.36 5.29 1.082l.361-4.69c-1.563-.48-3.848-.841-6.132-.841-4.81 0-10.341 1.443-10.341 6.854.12 8.176 11.423 5.53 11.423 9.74z" fill="#231F20"/></g><defs><clipPath id="clip0"><path fill="#fff" d="M0 0h180v59.76H0z"/></clipPath></defs></svg>