<svg width="232" height="40" fill="none" xmlns="http://www.w3.org/2000/svg"><path d="M16.97 9.066v7.986H7.987V9.066H0v21.862h7.987v-8.325h8.983v8.325h7.987V9.066m19.293.001v14.102c0 2.16-.737 2.378-3.885 2.378-3.235 0-4.546-.08-4.546-2.123V9.067h-7.987v14.471c0 5.258 1.186 7.562 12.533 7.562 7.518 0 11.871-1.237 11.871-7.562V9.067m23.12-.001l.428 15.826-7.68-15.826H55.157v21.862h7.994l-.428-15.817c.59 1.236 7.567 15.817 7.567 15.817h13.062V9.066m2.325 0v5.552h7.067v16.31h7.987v-16.31h7.435V9.066m1.31 6.63c0 6.155 3.886 6.36 10.326 6.7l2.635.137c3.309.162 3.309.19 3.309 1.657 0 1.398-.641 1.643-4.288 1.643-3.761 0-4.326-.278-4.326-2.124v-.311h-7.694v.311c0 7.393 5.305 7.393 12.02 7.393 5.807 0 9.285-.774 10.945-2.436 1.332-1.332 1.331-3.038 1.33-4.688v-.155c0-5.12-2.237-5.97-10.492-6.429l-3.055-.169c-2.118-.123-2.723-.218-2.723-1.557 0-.872 0-1.5 3.995-1.5 3.081 0 3.809.068 3.809 1.867v.312h7.693v-1.19c0-6.259-5.587-6.259-11.502-6.259-7.455 0-11.982.459-11.982 6.798zm48.848-6.63l-4.923 13.116-5.176-13.116h-12.194v21.862h8.001l-.699-15.483 6.72 15.483h6.779l6.686-15.566-.703 15.566h8.001V9.066m21.933 0h-11.615l-8.527 21.862h8.331l1.362-3.652h9.473l1.435 3.652h8.181l-8.64-21.862zm-9.529 14.076l3.577-9.828h.509l3.656 9.828m32.399-14.076l.43 15.828-7.68-15.828h-12.95v21.862h7.995l-.428-15.817 7.567 15.817h13.062V9.066" fill="#002A5C"/><path d="M.002 4.53h231.355V0H.002v4.53zM.001 40h231.355v-4.53H.001V40z" fill="#910027"/></svg>