<svg width="284" height="89" fill="none" xmlns="http://www.w3.org/2000/svg"><path fill-rule="evenodd" clip-rule="evenodd" d="M71.2 24.1l-51.1 8.1v-5.9l51.1-8.2v6zM20.1 70.2l51.1-8v-6.1l-51.1 8.2v5.9z" fill="#F15D22"/><path fill-rule="evenodd" clip-rule="evenodd" d="M55.3 35v5.5h-5.8v13h-7.1v-13h-5.7V35h18.6zm1.6 0v18.5H64V40.1h7.2V35H56.9zM35.6 48.2c-1.6.6-2.5.7-3.2.7-4.3 0-4.9-3.1-4.9-4.9 0-2.7 1.9-4.7 4.7-4.7 1.3 0 2.5.3 3.4.7v-4.9l-.2-.1c-.7-.1-2.4-.4-4.4-.4-8 0-10.9 4.9-10.9 9.6 0 5.6 3.8 9.6 10.8 9.6 1.3 0 2.8-.1 4.7-.6v-5zm68 3.1c-1.5.6-3.1.9-4.7.9-4 0-7.2-2.8-7.2-7.6 0-4.6 2.8-8.1 7.4-8.1.4 0 2.2 0 4.1.7l.1-1.6c-1.2-.4-2.5-.6-4.1-.6-6.6 0-9.3 4.7-9.3 9.6 0 4.6 2.8 9 9.2 9 1.9 0 3.4-.3 4.6-.7v-1.6h-.1zm1.2-11.3v1.4h4.3v12.1h1.6V41.4h4.2V40h-10.1zm14.6 19.1v-6.8l-.1-1.3h.1c.7 1.6 2.2 2.7 4 2.7 3 0 5.8-1.9 5.8-7 0-4.1-2.1-6.8-5.8-6.8-2.7 0-3.7 1.8-4.1 3h-.1v-2.8h-1.5v19.1h1.7v-.1zm4-6.8c-1.6 0-4-1.3-4-5.6 0-4.1 2.4-5.5 4-5.5s4 1.3 4 5.5c0 4.3-2.4 5.6-4 5.6zm14.4-12.4c-3.7 0-6.1 2.7-6.1 6.8 0 4.3 2.4 6.9 6.1 6.9 3.9 0 6.3-2.7 6.3-6.9 0-4.1-2.4-6.8-6.3-6.8zm0 12.4c-3.1 0-4.5-3-4.5-5.6 0-2.5 1.3-5.5 4.5-5.5 3.3 0 4.6 3 4.6 5.5.1 2.7-1.3 5.6-4.6 5.6zm9.8-12.3v13.5h1.9l6.9-9.9.9-1.3h.1v11.2h1.6V40h-1.9l-6.9 9.8-.9 1.5h-.2V40.1h-1.5V40zm1.9-5c.9 1.2 2.2 1.9 3.7 1.9 1.6 0 3-.7 3.9-1.9l-.7-1c-1.2 1.5-2.4 1.5-3.1 1.5-.6 0-1.8 0-3-1.5l-.8 1zm12 5v1.4h4.3v12.1h1.6V41.4h4.1V40h-10zM176 59.1v-6.8l-.1-1.3h.1c.7 1.6 2.2 2.7 4 2.7 3 0 5.8-1.9 5.8-7 0-4.1-2.1-6.8-5.8-6.8-2.7 0-3.7 1.8-4.1 3h-.1v-2.8h-1.5v19.1h1.7v-.1zm4-6.8c-1.6 0-4-1.3-4-5.6 0-4.1 2.4-5.5 4-5.5s4 1.3 4 5.5c0 4.3-2.4 5.6-4 5.6zm9.9-10c1.2-.7 2.7-1 4-1 2.9 0 2.9 2.7 2.9 3.5v.4h-.7c-2.8 0-7.7.3-7.7 4.7 0 1.9 1.5 3.7 4.3 3.7 1.5 0 3.2-.4 4.4-2.5v2.4h1.5v-8.8c0-1.8-.4-4.9-4.7-4.9-1.6 0-3 .3-4 .7v1.8zm7 4.4v.9c0 3-1.6 4.7-4.1 4.7-1.5 0-2.7-1-2.7-2.5 0-2.7 3-3.1 5.3-3.1h1.5zm6.2-6.7v13.5h1.7v-6.4h7.2v6.4h1.6V40H212v5.8h-7.2V40h-1.7zm24.1.4c-1.5-.4-2.7-.4-3.3-.4-4.6 0-6.8 3.4-6.8 6.8 0 4.1 2.7 6.9 7 6.9 1.2 0 2.1-.1 3.1-.4l-.2-1.5c-.9.4-1.9.6-3 .6-2.7 0-5.2-1.8-5.2-5.6 0-3.2 1.9-5.5 5.1-5.5 1.5 0 2.7.4 3.1.6l.2-1.5zm3.1-.4v13.5h1.8V41.4h6.5V40h-8.3zm11.3 2.3c1.2-.7 2.7-1 4-1 3 0 3.1 2.7 3.1 3.5v.4h-.9c-2.8 0-7.7.3-7.7 4.7 0 1.9 1.5 3.7 4.3 3.7 1.5 0 3.3-.4 4.5-2.5v2.4h1.5v-8.8c0-1.8-.4-4.9-4.8-4.9-1.6 0-3 .3-4 .7v1.8zm7.1 4.4v.9c0 3-1.6 4.7-4.3 4.7-1.5 0-2.7-1-2.7-2.5 0-2.7 3-3.1 5.5-3.1h1.5zm7.4.4h1.3c1.9 0 3.7.4 3.7 2.5 0 1.9-1.9 2.7-3.5 2.7-1.5 0-2.7-.4-3.8-1l-.3 1.5c1.6.7 3.1.9 4.1.9 3.7 0 5.3-1.8 5.3-4s-1.6-3-2.7-3.3v-.1c1-.3 1.9-1.3 1.9-2.8 0-1.9-1.3-3.5-4.6-3.5-1.2 0-2.4.1-3.5.6v1.5c1-.4 2.1-.7 3.4-.7 1.8 0 3.1.7 3.1 2.2 0 .6 0 2.4-3.1 2.4h-1.3v1.1z" fill="#1C1E26"/></svg>