<svg width="178" height="64" fill="none" xmlns="http://www.w3.org/2000/svg"><path d="M0 .952V32.69h31.737V.952H0zm21.969 21.97H9.768V10.72h12.201v12.2zm31.745-12.204h-12.21v12.21h12.21v-12.21zM63.473.952H81.16c6.492 0 9.459 4.326 9.459 8.284 0 2.85-1.1 4.684-4.034 6.401 3.7 1.367 5.717 3.842 5.717 7.65 0 4.56-3.333 9.402-11.117 9.402h-17.72L63.473.952zm9.66 24.586h6.4a3.067 3.067 0 003.334-3.067 2.75 2.75 0 00-3-2.65h-6.734v5.717zm0-12.076h5.142c2.35 0 3.284-1.092 3.284-2.7A2.367 2.367 0 0078.95 8.32H73.2l-.067 5.142zM102.369.952h10.226l11.668 31.67h-10.526l-1.542-4.742h-9.826l-1.3 4.717H90.701L102.37.952zm4.692 9.41l-2.692 10.584h5.768l-3.076-10.585zm33.479.014h9.751C150.291 4.992 146.24 0 136.631 0c-10.543 0-13.801 5.834-13.801 10.076 0 6.86 8.4 8.684 8.659 8.768 1.25.4 6.467 1.791 7.767 2.258 1.134.4 2.209 1.309 2.209 2.5 0 1.85-2.209 2.742-4.042 2.742-1.184 0-5.151-.391-5.151-4.592h-10.067c0 5.576 3.842 11.826 14.609 11.826 11.893 0 14.377-7.092 14.377-10.834a8.75 8.75 0 00-5.767-8.117c-2.417-.976-6.434-1.834-8.443-2.417-1.017-.3-4.4-.984-4.4-3.05 0-2.643 4.358-2.301 3.725-2.301 1.967-.017 4.234 1.092 4.234 3.517zM152.849.942h24.336v8.376h-14.61v5.584h13.027v8.001h-13.077v9.776h-9.726l.05-31.737zM12.668 57.799l-.017-.042L9.61 46.323H7.701L4.617 57.799h-.125l-.008-.042-2.7-11.434H.025l3.509 13.684h1.825L8.55 48.424h.117l.008.042 3.142 11.542h1.834l3.658-13.684h-1.725l-2.8 11.476h-.117zm12.743-5.979a4.36 4.36 0 00-1.384-1.383 4.075 4.075 0 00-2.183-.542 4.575 4.575 0 00-1.859.384 4.35 4.35 0 00-1.483 1.091 4.816 4.816 0 00-.967 1.667 5.876 5.876 0 00-.35 2.067c.022.71.137 1.413.342 2.092.174.612.475 1.18.883 1.667.406.428.901.761 1.45.975.652.27 1.354.4 2.059.383a4.5 4.5 0 002.792-.833 3.884 3.884 0 001.408-2.434h-1.5a2.4 2.4 0 01-.892 1.459 2.925 2.925 0 01-1.741.492 3.466 3.466 0 01-1.434-.276 2.833 2.833 0 01-1.575-1.8 4.167 4.167 0 01-.158-1.291h7.5a7.999 7.999 0 00-.166-1.85 5.526 5.526 0 00-.725-1.843l-.017-.024zm-6.576 2.367v-.05c.024-.377.106-.747.242-1.1.136-.34.337-.652.592-.916a2.817 2.817 0 012.067-.85c.395-.006.787.073 1.15.233.338.144.646.35.908.608.259.262.465.57.609.909.148.358.235.738.258 1.125v.05l-5.826-.009zm19.002 4.685a2.833 2.833 0 01-1.367-.317 2.675 2.675 0 01-.916-.834 3.616 3.616 0 01-.525-1.183 5.83 5.83 0 01-.167-1.367 7.2 7.2 0 01.158-1.475c.091-.448.267-.875.517-1.258.255-.366.595-.664.992-.867.47-.233.991-.348 1.517-.334a2.567 2.567 0 011.666.534c.43.382.722.895.834 1.458h1.592a3.842 3.842 0 00-.45-1.458 3.334 3.334 0 00-.925-1.05 3.66 3.66 0 00-1.292-.625 6.018 6.018 0 00-1.584-.2 4.901 4.901 0 00-2.042.408 4.084 4.084 0 00-1.458 1.125 4.886 4.886 0 00-.834 1.667 7.276 7.276 0 00-.291 2.084 6.669 6.669 0 00.267 2.025c.17.611.468 1.18.875 1.667.397.45.893.8 1.45 1.025a5.162 5.162 0 002 .367 4.284 4.284 0 002.984-.992 4.509 4.509 0 001.358-2.767h-1.575a2.908 2.908 0 01-.834 1.783 2.736 2.736 0 01-1.933.65m9.368-8.508a4.501 4.501 0 00-1.526 1.775h-.05v-2.076h-1.45v9.876h1.5v-4.383c.003-.59.078-1.179.226-1.75a3.33 3.33 0 01.608-1.26c.3-.374.693-.662 1.142-.833a4.825 4.825 0 011.667-.275v-1.666h-.117a3.534 3.534 0 00-2.009.533m10.518 1.449a4.409 4.409 0 00-1.392-1.383 4.075 4.075 0 00-2.183-.542 4.55 4.55 0 00-1.859.384 4.467 4.467 0 00-1.475 1.091 4.936 4.936 0 00-.958 1.667 5.875 5.875 0 00-.35 2.067 8.15 8.15 0 00.333 2.092c.18.61.484 1.178.892 1.667.398.462.897.827 1.458 1.067a5 5 0 002.059.383 4.492 4.492 0 002.783-.833 3.86 3.86 0 001.417-2.434H56.94a2.35 2.35 0 01-.883 1.459 2.95 2.95 0 01-1.742.491 3.432 3.432 0 01-1.433-.275 2.859 2.859 0 01-1.009-.741 2.825 2.825 0 01-.567-1.059 4.167 4.167 0 01-.158-1.383h7.5a7.974 7.974 0 00-.157-1.85 5.542 5.542 0 00-.734-1.843l-.025-.024zm-6.559 2.367v-.05c.018-.377.096-.748.233-1.1.137-.34.338-.652.592-.916.251-.266.555-.476.892-.617a2.81 2.81 0 011.167-.234 2.7 2.7 0 011.15.234c.686.286 1.23.83 1.517 1.517.15.357.241.737.266 1.125v.05l-5.817-.009zM68.59 58.59a3.676 3.676 0 01-.066-.833V52.59a2.617 2.617 0 00-.325-1.383 2.308 2.308 0 00-.834-.834 3.403 3.403 0 00-1.183-.383 7.891 7.891 0 00-2.909.075c-.47.104-.916.293-1.317.558a2.9 2.9 0 00-.908 1.017c-.236.46-.367.967-.383 1.484h1.541a1.668 1.668 0 01.776-1.484 3.55 3.55 0 011.767-.408c.262.003.523.022.783.058.257.038.505.12.733.242.226.117.414.296.542.517.156.273.23.585.217.9a.933.933 0 01-.292.741c-.22.184-.48.315-.758.384a6.76 6.76 0 01-1.076.191c-.4 0-.833.109-1.283.2-.45.092-.833.175-1.242.292a3.402 3.402 0 00-1.067.5c-.306.219-.56.504-.741.834a2.834 2.834 0 00-.284 1.358 2.91 2.91 0 00.25 1.267c.167.327.407.612.7.833.312.223.662.384 1.034.475.415.096.84.143 1.267.142a5.19 5.19 0 001.916-.35 4 4 0 001.559-1.159l.092-.108v.142a1.501 1.501 0 00.358 1.133c.268.237.618.36.975.342.392.02.782-.06 1.134-.233v-1.167c-.146.045-.298.07-.45.075-.292 0-.459-.1-.509-.309l-.016.059zM67 56.533c-.006.262-.066.52-.175.759a2.258 2.258 0 01-.559.758 2.95 2.95 0 01-.958.567 3.96 3.96 0 01-1.409.225 3.69 3.69 0 01-.741-.075 2.07 2.07 0 01-.634-.258 1.509 1.509 0 01-.442-.476 1.435 1.435 0 01-.166-.708 1.55 1.55 0 01.275-.95c.193-.251.449-.447.742-.567a4.039 4.039 0 011.016-.267c.35-.058.726-.108 1.109-.158a9.181 9.181 0 001.05-.175c.299-.043.584-.154.833-.325l.084-.066L67 56.533zm17.692-4.713a4.409 4.409 0 00-1.392-1.383 4.075 4.075 0 00-2.183-.542 4.516 4.516 0 00-1.859.384 4.382 4.382 0 00-1.475 1.091 5.1 5.1 0 00-.967 1.667 6.077 6.077 0 00-.341 2.067c.02.709.133 1.412.333 2.092.178.611.482 1.18.892 1.667.398.462.897.827 1.458 1.067a5 5 0 002.059.383A4.475 4.475 0 0084 59.48a3.934 3.934 0 001.416-2.434H83.9a2.4 2.4 0 01-.891 1.459 2.9 2.9 0 01-1.734.491 3.432 3.432 0 01-1.408-.375 2.859 2.859 0 01-1.009-.742 2.825 2.825 0 01-.566-1.058 3.89 3.89 0 01-.184-1.283h7.501a7.502 7.502 0 00-.167-1.85 5.526 5.526 0 00-.725-1.843l-.025-.024zm-6.525 2.367v-.05c.013-.377.092-.75.233-1.1.136-.34.337-.652.592-.916.243-.276.54-.498.875-.65.37-.162.77-.241 1.175-.234.395-.006.788.074 1.15.233.337.143.642.35.9.609.261.259.468.568.609.908.152.357.242.738.266 1.125v.05l-5.8.025zm18.977 4.686a2.776 2.776 0 01-1.359-.317 2.7 2.7 0 01-.925-.833 3.817 3.817 0 01-.525-1.184 5.73 5.73 0 01-.158-1.367c-.002-.495.048-.99.15-1.475.096-.446.271-.872.516-1.258.25-.371.584-.677.975-.892a3.216 3.216 0 011.517-.333 2.57 2.57 0 011.667.533c.435.378.729.892.833 1.459h1.601a3.85 3.85 0 00-.459-1.459 3.322 3.322 0 00-.917-1.05c-.39-.289-.83-.5-1.3-.625a5.998 5.998 0 00-1.575-.2 4.918 4.918 0 00-2.05.408 4.167 4.167 0 00-1.459 1.125 4.884 4.884 0 00-.833 1.667 7.275 7.275 0 00-.283 2.084c-.006.691.093 1.38.291 2.042.171.58.454 1.12.834 1.591.397.45.893.801 1.45 1.026a5.184 5.184 0 002 .366 4.317 4.317 0 002.992-.991 4.55 4.55 0 001.409-2.726h-1.567a2.959 2.959 0 01-.834 1.784 2.725 2.725 0 01-1.933.65m13.785-7.991a2.67 2.67 0 00-1.042-.742 4.361 4.361 0 00-1.667-.267 4.47 4.47 0 00-.908.1 3.73 3.73 0 00-.892.292 3.025 3.025 0 00-.767.517 2.19 2.19 0 00-.583.758h-.075v-5.242h-1.534v13.684h1.534v-5.583a4.07 4.07 0 01.191-1.259 2.8 2.8 0 01.559-1.017 2.65 2.65 0 01.933-.675c.423-.16.873-.24 1.325-.233a2.079 2.079 0 011.525.558 2.024 2.024 0 01.559 1.509v6.667h1.542V53.5a6.191 6.191 0 00-.167-1.467 2.698 2.698 0 00-.558-1.125m11.051.912a4.409 4.409 0 00-1.392-1.383 4.076 4.076 0 00-2.184-.542 4.579 4.579 0 00-1.866.384 4.43 4.43 0 00-1.467 1.091 5.081 5.081 0 00-.967 1.667 6.084 6.084 0 00-.342 2.067c.02.709.133 1.412.334 2.092.18.61.483 1.178.891 1.667.399.462.898.827 1.459 1.067a5 5 0 002.05.383 4.5 4.5 0 002.792-.833 3.937 3.937 0 001.417-2.434h-1.517a2.4 2.4 0 01-.892 1.459 2.906 2.906 0 01-1.742.491 3.426 3.426 0 01-1.425-.275 2.784 2.784 0 01-1.575-1.8 3.881 3.881 0 01-.158-1.258v-.125h7.501a7.518 7.518 0 00-.167-1.85 5.541 5.541 0 00-.725-1.843l-.025-.024zm-6.568 2.367v-.05c.022-.379.109-.75.259-1.1a2.82 2.82 0 01.583-.916 2.855 2.855 0 012.067-.834c.396-.007.789.072 1.15.233a2.818 2.818 0 011.517 1.517c.151.358.241.738.267 1.125v.05l-5.843-.025zm22.436-3.649a2.95 2.95 0 00-1.025-.508 5.561 5.561 0 00-1.35-.159 3.666 3.666 0 00-1.775.442c-.536.29-.987.715-1.309 1.233l-.058.092v-.1a2.112 2.112 0 00-1.033-1.283 3.58 3.58 0 00-1.667-.384 3.7 3.7 0 00-3.242 1.667h-.059V50.13h-1.491v9.875h1.533v-6.133c.01-.251.061-.499.15-.734.231-.667.7-1.225 1.317-1.567a2.5 2.5 0 011.258-.3 2.17 2.17 0 01.934.175c.239.098.444.263.592.475.152.218.257.465.308.725.062.296.092.598.092.9v6.493h1.533v-6.167a2.578 2.578 0 01.708-1.884 2.651 2.651 0 011.951-.717 2.31 2.31 0 011 .184c.244.104.455.274.608.491.156.215.259.463.3.725.049.276.074.554.075.834v6.492h1.542v-7.259a3.219 3.219 0 00-.242-1.3 2.17 2.17 0 00-.658-.833m5.134-2.374h-1.534v-1.908h1.534v1.908zm0 1.9h-1.534v9.877h1.534V50.13zm9.184 9.443c.394-.234.726-.56.967-.95a2.68 2.68 0 00.375-1.475 2.313 2.313 0 00-.275-1.175 2.576 2.576 0 00-.717-.784 3.972 3.972 0 00-1-.483 11.025 11.025 0 00-1.2-.333l-1.159-.259a7.208 7.208 0 01-1.05-.308 2.505 2.505 0 01-.783-.475 1.093 1.093 0 01-.108-1.409c.139-.17.316-.307.516-.4.223-.101.458-.172.7-.208.518-.1 1.05-.1 1.567 0 .26.058.51.153.742.283.222.132.413.312.558.525.148.236.234.506.25.784h1.542a3.534 3.534 0 00-.375-1.442 2.555 2.555 0 00-.833-.942 3.671 3.671 0 00-1.242-.5 8.211 8.211 0 00-1.559-.142c-.44.005-.879.058-1.308.159-.443.101-.867.27-1.259.5a2.646 2.646 0 00-.833.833 2.36 2.36 0 00-.333 1.267 2.116 2.116 0 00.475 1.467 3.11 3.11 0 001.183.833c.507.204 1.031.36 1.567.467.531.094 1.057.217 1.575.367.435.11.848.29 1.225.533a1.158 1.158 0 01.509 1.009c.02.298-.069.594-.25.833-.156.209-.367.37-.609.467a2.99 2.99 0 01-.833.216 5.22 5.22 0 01-1.809 0 2.419 2.419 0 01-.833-.325 1.765 1.765 0 01-.633-.608 1.994 1.994 0 01-.259-.9h-1.533c.016.521.144 1.033.375 1.5.218.411.532.763.916 1.025.396.27.841.459 1.309.559a7.501 7.501 0 003.084 0c.476-.09.933-.262 1.35-.509m5.509-12.434h-1.534v2.992h-1.667v1.341h1.667v6.41c-.013.37.032.742.133 1.1.064.247.204.469.401.633.206.161.449.267.708.308.358.062.72.09 1.083.084h1.2v-1.342h-1.333a.901.901 0 01-.4-.133.546.546 0 01-.208-.3 1.873 1.873 0 01-.05-.484V51.5h2.05v-1.367h-2.05V47.14zm-84.342 0h-1.542v2.992H70.14v1.341h1.666v6.41c-.008.37.037.741.134 1.1.07.244.21.464.4.633.207.16.45.266.708.308.358.062.72.09 1.084.084h1.2v-1.342h-1.334a.982.982 0 01-.4-.133.533.533 0 01-.2-.3 1.909 1.909 0 01-.05-.484V51.5h2.05v-1.367h-2.05V47.14zm90.209 5.184h-.058v-2.192h-1.459v9.876h1.542V55.74c-.006-.58.058-1.16.192-1.725a3.32 3.32 0 01.633-1.283 2.683 2.683 0 011.142-.834 4.76 4.76 0 011.667-.275v-1.666a3.648 3.648 0 00-2.117.533 4.56 4.56 0 00-1.517 1.775m8.693 10.326c.213-.4.403-.811.566-1.233l4.317-11.227h-1.666l-2.801 8.168h-.116l-2.909-8.134h-1.734l3.934 9.876-.675 1.667a1.95 1.95 0 01-.558.7 1.385 1.385 0 01-.834.241 1.537 1.537 0 01-.508-.083l-.409-.133v1.441c.167.06.341.1.517.117.192.013.384.013.575 0a2.92 2.92 0 00.95-.142c.269-.102.515-.254.725-.45.243-.246.448-.527.609-.833" fill="#2EB2FC"/></svg>