<svg width="95" height="86" fill="none" xmlns="http://www.w3.org/2000/svg"><g clip-path="url(#clip0)"><path d="M45.693 44.635c6.245-6.252 6.24-16.383-.013-22.627-6.252-6.245-16.382-6.24-22.627.012-6.245 6.252-6.239 16.383.013 22.628 6.252 6.244 16.382 6.239 22.627-.013z" fill="#1098F7"/><path d="M27.75 13.7v13.9l8 4.2" stroke="#111029" stroke-width="2" stroke-miterlimit="10" stroke-linecap="round"/><path d="M54.55 30.4l-5.8-2.1v-1c0-3.2-.7-6.3-2-9l4.1-4.2c.2-.2.2-.5 0-.7l-3.6-4.5c-.2-.2-.5-.3-.7-.1l-4.8 3c-2.7-2.3-5.9-4-9.6-4.7l-.7-5.5c0-.4-.2-.6-.5-.6h-5.7c-.3 0-.5.2-.6.5l-.7 5.5c-3.6.7-6.9 2.4-9.6 4.7l-4.8-3c-.2-.1-.5 0-.7.2l-3.6 4.5c-.2.2-.2.5 0 .7l4.1 4.2c-1.3 2.7-2 5.8-2 9v1l-5.8 2.1c-.2.1-.3.4-.3.6l1.3 5.6c.1.3.3.5.6.4l6.4-.6c1.5 2.9 3.6 5.5 6.2 7.4l-2.1 6.3c-.1.3 0 .6.3.7l5.2 2.5c.3.1.6 0 .7-.2l3.7-5.7c1.5.3 3.1.5 4.7.5s3.2-.2 4.7-.5l3.7 5.7c.2.2.5.3.7.2l5.2-2.5c.3-.1.4-.4.3-.7l-2.1-6.3c2.6-1.9 4.7-4.5 6.2-7.4l6.4.6c.3 0 .5-.2.6-.4l1.3-5.6c-.2-.2-.4-.5-.7-.6zm21.997 30.756c.25-3.913-2.674-7.285-6.533-7.532-3.858-.247-7.189 2.725-7.439 6.639-.25 3.913 2.675 7.286 6.533 7.532 3.858.247 7.189-2.725 7.44-6.639z" stroke="#111029" stroke-width="2" stroke-miterlimit="10" stroke-linecap="round"/><path d="M92.95 64.1l-5.3-2.3c.1-1.5 0-2.9-.2-4.3l4.9-2.9c.2-.1.3-.5.2-.7l-2.3-5.4c-.1-.3-.4-.4-.7-.3l-5.5 1.6c-.8-1.1-1.8-2.2-2.9-3.1l1.9-5.4c.1-.3 0-.6-.3-.7l-5.2-2.6c-.3-.1-.6 0-.7.2l-3.2 4.8c-.6-.2-1.3-.3-2-.4-.7-.1-1.5-.1-2.2-.1l-2-5.4c-.1-.3-.4-.4-.7-.4l-5.6 1.3c-.3.1-.5.3-.4.6l.6 5.8c-1.3.6-2.5 1.4-3.5 2.4l-5-2.8c-.2-.1-.6-.1-.7.2l-3.5 4.7c-.2.2-.1.6.1.8l4.1 4c-.6 1.3-1 2.7-1.2 4.1l-5.6 1c-.3.1-.5.3-.5.6l.3 5.8c0 .3.2.5.5.5l5.7.4c.4 1.4 1 2.7 1.7 3.9l-3.7 4.4c-.2.2-.2.5 0 .8l4 4.3c.2.2.5.2.7.1l4.7-3.4c1.2.8 2.4 1.4 3.8 1.9v5.8c0 .3.2.5.5.6l5.8.7c.3 0 .5-.2.6-.4l1.4-5.6c1.4-.2 2.8-.5 4.1-1l3.7 4.4c.2.2.5.3.7.1l4.9-3.2c.2-.2.3-.5.2-.7l-2.5-5.2c1-1 1.8-2.2 2.5-3.4l5.6 1c.3 0 .6-.1.6-.4l1.7-5.6c.3-.7.1-1-.1-1.1z" stroke="#111029" stroke-width="2" stroke-miterlimit="10" stroke-linecap="round"/></g><defs><clipPath id="clip0"><path fill="#fff" transform="translate(.25)" d="M0 0h94v86H0z"/></clipPath></defs></svg>