<svg width="74" height="94" fill="none" xmlns="http://www.w3.org/2000/svg"><path d="M72 51H41.4c-.3 0-.5.1-.7.3l-3 3c-.4.4-1 .4-1.4 0l-3-3c-.2-.2-.4-.3-.7-.3H2c-.6 0-1-.4-1-1V2c0-.6.4-1 1-1h30.6c.3 0 .5.1.7.3l3 3c.4.4 1 .4 1.4 0l3-3c.2-.2.4-.3.7-.3H72c.6 0 1 .4 1 1v48c0 .6-.4 1-1 1z" stroke="#111029" stroke-width="2" stroke-miterlimit="10" stroke-linecap="round"/><path d="M49 33c6.627 0 12-5.373 12-12S55.627 9 49 9s-12 5.373-12 12 5.373 12 12 12z" fill="#1098F7"/><path d="M9 41h20M9 35h20" stroke="#111029" stroke-width="2" stroke-miterlimit="10" stroke-linecap="round"/><path d="M37 75h-8.6C19.9 75 13 68.1 13 59.6V59h9.8C30.6 59 37 65.4 37 73.2V75zm0 0h8.6C54.1 75 61 68.1 61 59.6V59h-9.8C43.4 59 37 65.4 37 73.2V75z" stroke="#111029" stroke-width="2" stroke-miterlimit="10" stroke-linecap="round" stroke-linejoin="round"/><path d="M37 68v0zm0 0V55v13zm0 25a6 6 0 100-12 6 6 0 000 12z" stroke="#111029" stroke-width="2" stroke-miterlimit="10" stroke-linecap="round"/><path d="M48 33v10l6-6 6 6V33" stroke="#111029" stroke-width="2" stroke-miterlimit="10" stroke-linecap="round" stroke-linejoin="round"/><path d="M54 33.5c6.351 0 11.5-5.149 11.5-11.5S60.351 10.5 54 10.5 42.5 15.649 42.5 22 47.649 33.5 54 33.5zM9 14.1c0-2 3.3-2.2 4.8-2 2.4.2 4.1 2.6 2.8 4.8-.8 1.4-2.9 1.7-4.3 2.4-1.8.9-3.2 2.6-3.3 4.7h7.9" stroke="#111029" stroke-width="2" stroke-miterlimit="10" stroke-linecap="round"/><path d="M25 13c2.2 0 4 2.2 4 5s-1.8 5-4 5-4-2.2-4-5 1.8-5 4-5zm0-2c-3.3 0-6 3.1-6 7s2.7 7 6 7 6-3.1 6-7-2.7-7-6-7z" fill="#111029"/></svg>