<svg width="87" height="95" fill="none" xmlns="http://www.w3.org/2000/svg"><path d="M30.1 3.5h-.6c-7.2 0-12.9 5.7-12.9 12.8v6.4c0 7.1 5.7 12.8 12.8 12.8h.6c7.1 0 12.8-5.7 12.8-12.8v-6.4c.1-7.1-5.7-12.8-12.7-12.8z" fill="#1098F7"/><path d="M29.4 5.6c4.7 1.9 8.1 6.5 8.1 11.9v6.1c0 7.1-5.7 12.8-12.8 12.8h-.6c-7.1 0-12.8-5.7-12.8-12.8v-6.1c0-5.6 3.5-10.3 8.5-12.1" stroke="#111029" stroke-width="2" stroke-miterlimit="10" stroke-linecap="round"/><path d="M18.7 15.2l1-3.2V3.6c0-.3.2-.5.5-.5h8.4c.3 0 .5.2.5.5V12l1 3.2M3.5 49.5c-.2.8-.3 1.7-.3 2.6v23.8c0 4.4 2.5 8.2 6.2 10.1 1 .5 1.7 1.6 1.7 2.8v4.7M46.3 76V52.2c0-6.2-5-11.2-11.2-11.2h-3.5c-.3 0-.5.1-.7.3l-5.4 5.2c-.4.4-1.1.4-1.5 0l-4.6-5.2c-.2-.2-.5-.3-.7-.3h-1.3" stroke="#111029" stroke-width="2" stroke-miterlimit="10" stroke-linecap="round"/><path d="M37.9 93.5V59.8c0-.6.4-1 1-1h7.4v34.7M3.4 49c-1.1-1.4-1.8-3.2-1.8-5.2 0-.5 0-.9.1-1.3 0-.2.1-.4.3-.5 1-1.1 2.6-2.5 4.9-3.7 2.2-1.2 4.3-1.7 5.8-1.9.2 0 .4 0 .6.1 3.1 1.4 5.1 4.8 4.6 8.5-.5 3.6-3.4 6.5-7 7-3.1.3-5.8-.9-7.5-3zm7.7-26.3c-1.9-.3-3-.8-3-1.2 0-1.2 7.3-2.1 16.3-2.1s16.2.9 16.2 2.1c0 .5-1.2.9-3.2 1.2m45.4 23.5V76c0 4.4-2.5 8.2-6.2 10.1-1 .5-1.7 1.6-1.7 2.8v4.7m-31.3-51c2-1.7 4.5-2.7 7.3-2.7h3.5c.3 0 .5.1.7.3l5.3 5.3c.4.4 1.1.4 1.5 0l4.6-5.2c.2-.2.5-.3.7-.3h1.4" stroke="#111029" stroke-width="2" stroke-miterlimit="10" stroke-linecap="round"/><path d="M83.6 45.3c1.1-1.4 1.8-3.2 1.8-5.2 0-.5 0-.9-.1-1.3 0-.2-.1-.4-.3-.5-1-1.1-2.6-2.5-4.9-3.7-2.2-1.2-4.3-1.7-5.8-1.9-.2 0-.4 0-.6.1-3.1 1.4-5.1 4.8-4.6 8.5.5 3.6 3.4 6.5 7 7 3.1.3 5.8-.9 7.5-3zM66.5 4c4.7 1.9 8 6.5 8 11.9V22c0 7.1-5.7 12.8-12.8 12.8h-.6c-7.1 0-12.8-5.7-12.8-12.8v-6.1c0-5.6 3.5-10.3 8.5-12.1" stroke="#111029" stroke-width="2" stroke-miterlimit="10" stroke-linecap="round"/><path d="M55.7 13.6l1-3.2V2c0-.3.2-.5.5-.5h8.4c.3 0 .5.2.5.5v8.4l1 3.2m-19 7.5c-1.9-.3-3-.8-3-1.2 0-1.2 7.3-2.1 16.3-2.1s16.3.9 16.3 2.1c0 .5-1.2.9-3.2 1.2" stroke="#111029" stroke-width="2" stroke-miterlimit="10" stroke-linecap="round"/></svg>