<svg width="94" height="84" fill="none" xmlns="http://www.w3.org/2000/svg"><g clip-path="url(#clip0)"><path d="M51.6 70.45c8.837 0 16-7.163 16-16 0-8.836-7.163-16-16-16s-16 7.164-16 16c0 8.837 7.163 16 16 16z" fill="#1098F7"/><path d="M40.8 12.8v67.1M19.6 29v50.9m36.1 0H1.6c-.3 0-.6-.3-.6-.6V40.8c0-.3.3-.6.6-.6H19c.3 0 .6-.3.6-.6V2.2c0-.3.3-.6.6-.6h19.9c.3 0 .6.3.6.6v13.7c0 .3.3.6.6.6h19.9c.3 0 .6.3.6.6v26.7" stroke="#111029" stroke-width="2" stroke-miterlimit="10" stroke-linecap="round"/><path d="M65.6 65a7.5 7.5 0 100-15 7.5 7.5 0 000 15zm21.2-13.7L63.2 81.2m22.3 1.3a7.5 7.5 0 100-15 7.5 7.5 0 000 15z" stroke="#111029" stroke-width="2" stroke-miterlimit="10" stroke-linecap="round"/></g><defs><clipPath id="clip0"><path fill="#fff" transform="translate(0 .6)" d="M0 0h94v82.8H0z"/></clipPath></defs></svg>