<svg width="94" height="74" fill="none" xmlns="http://www.w3.org/2000/svg"><g clip-path="url(#clip0)"><path d="M31 49.35c8.837 0 16-7.163 16-16s-7.163-16-16-16-16 7.163-16 16 7.163 16 16 16z" fill="#1098F7"/><path d="M77.5 45.45H4.9c-2.1 0-3.9-1.7-3.9-3.9 0-2.1 1.7-3.9 3.9-3.9h72.6c2.1 0 3.9 1.7 3.9 3.9s-1.7 3.9-3.9 3.9zm-13.8-32.4c7.5 5.9 12.6 14.7 13.6 24.6m-72.2 0C7 19.45 22.5 5.25 41.2 5.25m30.9 40.2c-1.9 15.4-15 27.2-30.9 27.2-15.9 0-29-11.9-30.9-27.2" stroke="#111029" stroke-width="2" stroke-miterlimit="10" stroke-linecap="round"/><path d="M66.9 45.45c-1.9 12.5-12.7 22.1-25.7 22.1s-23.8-9.6-25.7-22.1m61.9-32.4c-3.8-1.5-6.5-5.3-6.5-9.6 0-.7.1-1.4.2-2.1m-.8 11.7c-3.8-1.5-6.5-5.3-6.5-9.6 0-.7.1-1.4.2-2.1m-.8 11.7c-3.8-1.5-6.5-5.3-6.5-9.6 0-.7.1-1.4.2-2.1" stroke="#111029" stroke-width="2" stroke-miterlimit="10" stroke-linecap="round"/><path d="M50.8 45.45c-1.5 3.8-5.3 6.5-9.6 6.5s-8.1-2.7-9.6-6.5m.5-20.9h18.2m-16.2-5.2h24.6v10.4h-35v-10.4m17-14.1l1.6-3.5c0-.2.3-.4.5-.4h37.8c3.2 0 5.8 2.6 5.8 5.8 0 3.2-2.6 5.8-5.8 5.8H51.5m35-6.4h1.3c1.4 0 2.6 1.2 2.6 2.6v15.6c0 .7-.6 1.3-1.3 1.3h-1.3c-.7 0-1.3.6-1.3 1.3v7.8c0 .7.6 1.3 1.3 1.3h3.9c.7 0 1.3.6 1.3 1.3v15.6" stroke="#111029" stroke-width="2" stroke-miterlimit="10" stroke-linecap="round"/></g><defs><clipPath id="clip0"><path fill="#fff" transform="translate(0 .35)" d="M0 0h94v73.3H0z"/></clipPath></defs></svg>