<svg width="95" height="94" fill="none" xmlns="http://www.w3.org/2000/svg"><g clip-path="url(#clip0)"><path d="M20.3 69c0 8.837 7.163 16 16 16s16-7.163 16-16-7.163-16-16-16-16 7.163-16 16z" fill="#1098F7"/><path d="M90.5 1h-88a1 1 0 00-1 1v88a1 1 0 001 1h88a1 1 0 001-1V2a1 1 0 00-1-1zM12.826 90c0-42.847 34.728-77.576 77.576-77.576M32 90c0-32.283 26.217-58.5 58.5-58.5M72.5 0v13.793M54.5 0v20.641M36.5 0v34.435M18.5 0v60.75" stroke="#111029" stroke-width="2" stroke-miterlimit="10" stroke-linecap="round"/><path d="M78.76 54.783a5.87 5.87 0 100-11.74 5.87 5.87 0 000 11.74zm0 25.434a5.87 5.87 0 100-11.739 5.87 5.87 0 000 11.74zm-27.39 0a5.87 5.87 0 100-11.739 5.87 5.87 0 000 11.74z" stroke="#111029" stroke-width="2" stroke-miterlimit="10" stroke-linecap="round"/></g><defs><clipPath id="clip0"><path fill="#fff" transform="translate(.5)" d="M0 0h94v94H0z"/></clipPath></defs></svg>