<svg width="19" height="21" fill="none" xmlns="http://www.w3.org/2000/svg"><path fill-rule="evenodd" clip-rule="evenodd" d="M4.292 14.333c0-.527.468-.958 1.041-.958s1.042.431 1.042.958c0 .527-.469.958-1.042.958-.573 0-1.041-.43-1.041-.958zm5.208-.958h4.167c.573 0 1.041.431 1.041.958 0 .527-.468.958-1.041.958H9.5c-.573 0-1.042-.43-1.042-.958 0-.527.47-.958 1.042-.958zm6.25 4.791H3.25c-.574 0-1.042-.43-1.042-.958v-5.75h14.584v5.75c0 .528-.468.959-1.042.959M3.25 4.75h1.042v.958c0 .527.468.958 1.041.958s1.042-.43 1.042-.958V4.75h6.25v.958c0 .527.469.958 1.042.958.573 0 1.041-.43 1.041-.958V4.75h1.042c.574 0 1.042.43 1.042.958v3.833H2.208V5.708c0-.528.468-.958 1.042-.958m12.5-1.917h-1.042v-.958c0-.527-.468-.958-1.041-.958s-1.042.43-1.042.958v.958h-6.25v-.958c0-.527-.469-.958-1.042-.958-.573 0-1.041.43-1.041.958v.958H3.25c-1.723 0-3.125 1.29-3.125 2.875v11.5c0 1.585 1.402 2.875 3.125 2.875h12.5c1.723 0 3.125-1.29 3.125-2.875v-11.5c0-1.585-1.402-2.875-3.125-2.875" fill="#111029"/></svg>