<svg width="19" height="19" fill="none" xmlns="http://www.w3.org/2000/svg"><path fill-rule="evenodd" clip-rule="evenodd" d="M6.793 19c-1.656 0-3.23-.666-4.432-1.875-2.388-2.403-2.486-6.213-.219-8.494l7.386-7.43A4.085 4.085 0 0112.45 0c1.194 0 2.328.479 3.193 1.349 1.72 1.731 1.787 4.482.146 6.132L8.393 14.91a2.535 2.535 0 01-1.816.748 2.738 2.738 0 01-1.95-.821c-1.053-1.061-1.086-2.752-.073-3.772L11.38 4.21a.999.999 0 111.418 1.41l-6.825 6.856c-.24.242-.207.669.074.951a.76.76 0 00.531.231.55.55 0 00.398-.158l7.396-7.429c.867-.873.801-2.358-.146-3.312-.907-.912-2.447-.984-3.278-.148l-7.387 7.43c-1.494 1.503-1.396 4.049.22 5.674C4.603 16.544 5.673 17 6.793 17a3.648 3.648 0 002.611-1.064l7.387-7.43a1 1 0 111.418 1.41l-7.386 7.43C9.762 18.412 8.33 19 6.792 19z" fill="#231F20"/></svg>