<svg width="19" height="21" fill="none" xmlns="http://www.w3.org/2000/svg"><path fill-rule="evenodd" clip-rule="evenodd" d="M16.792 2.875h-4.355C12 1.764 10.854.958 9.5.958c-1.354 0-2.5.806-2.938 1.917H2.208c-1.146 0-2.083.863-2.083 1.917v13.416c0 1.055.938 1.917 2.083 1.917h14.584c1.145 0 2.083-.862 2.083-1.916V4.792c0-1.054-.938-1.917-2.083-1.917zM9.5 2.635a.81.81 0 01.573.24.687.687 0 01.208.48c0 .392-.354.718-.781.718-.427 0-.781-.326-.781-.719 0-.182.083-.354.208-.479a.81.81 0 01.573-.24zm7.292 15.573H2.208V4.793h14.584V18.21zM9.5 5.75c-1.719 0-3.125 1.294-3.125 2.875S7.781 11.5 9.5 11.5s3.125-1.294 3.125-2.875S11.219 5.75 9.5 5.75zm0 3.834c-.573 0-1.042-.432-1.042-.959 0-.527.47-.958 1.042-.958.573 0 1.042.431 1.042.958 0 .527-.47.959-1.042.959zm-6.25 6.2v1.466h12.5v-1.466c0-2.396-4.135-3.43-6.25-3.43s-6.25 1.025-6.25 3.43zm2.406-.45c.719-.537 2.48-1.074 3.844-1.074 1.365 0 3.135.537 3.844 1.074H5.656z" fill="#111029"/></svg>