<svg width="20" height="19" fill="none" xmlns="http://www.w3.org/2000/svg"><path fill-rule="evenodd" clip-rule="evenodd" d="M10 4.708V.875H0v17.25h20V4.708H10zm-6 11.5H2v-1.916h2v1.916zm0-3.833H2v-1.917h2v1.917zm0-3.833H2V6.625h2v1.917zm0-3.834H2V2.792h2v1.916zm4 11.5H6v-1.916h2v1.916zm0-3.833H6v-1.917h2v1.917zm0-3.833H6V6.625h2v1.917zm0-3.834H6V2.792h2v1.916zm10 11.5h-8v-1.916h2v-1.917h-2v-1.917h2V8.542h-2V6.625h8v9.583zm-2-7.666h-2v1.916h2V8.542zm0 3.833h-2v1.917h2v-1.917z" fill="#111029"/></svg>