<svg width="17" height="21" fill="none" xmlns="http://www.w3.org/2000/svg"><path fill-rule="evenodd" clip-rule="evenodd" d="M8.5 9.541c-.862 0-1.563-.645-1.563-1.437 0-.793.701-1.438 1.563-1.438.861 0 1.563.645 1.563 1.438 0 .792-.702 1.437-1.563 1.437m0-4.792c-2.01 0-3.646 1.505-3.646 3.355S6.49 11.458 8.5 11.458s3.646-1.505 3.646-3.354c0-1.85-1.636-3.355-3.646-3.355m0 13.078c-1.745-1.518-6.25-5.78-6.25-9.319 0-3.129 2.803-5.675 6.25-5.675s6.25 2.546 6.25 5.675c0 3.54-4.505 7.801-6.25 9.32M8.5.916C3.905.917.167 4.32.167 8.508c0 5.247 7.342 11.097 7.655 11.343.196.155.436.232.678.232.242 0 .482-.077.678-.232.313-.246 7.655-6.096 7.655-11.343 0-4.187-3.738-7.591-8.333-7.591" fill="#111029"/></svg>