<svg width="19" height="19" fill="none" xmlns="http://www.w3.org/2000/svg"><path fill-rule="evenodd" clip-rule="evenodd" d="M3.813 2.792c.062.853.218 1.686.468 2.482l-1.25 1.15a13.219 13.219 0 01-.791-3.632h1.572zm10.27 11.519c.886.23 1.792.374 2.709.431v1.428a17.3 17.3 0 01-3.959-.719l1.25-1.14zM4.813.875H1.167c-.573 0-1.042.431-1.042.958 0 9 7.927 16.292 17.708 16.292.573 0 1.042-.431 1.042-.958v-3.345c0-.527-.469-.958-1.042-.958-1.291 0-2.552-.192-3.718-.546a.945.945 0 00-.323-.048c-.271 0-.532.095-.74.277l-2.292 2.109c-2.947-1.39-5.364-3.604-6.864-6.316l2.292-2.108a.909.909 0 00.26-.977 10.095 10.095 0 01-.594-3.422c0-.527-.469-.958-1.042-.958z" fill="#111029"/></svg>