<svg width="24" height="18" fill="none" xmlns="http://www.w3.org/2000/svg"><path fill-rule="evenodd" clip-rule="evenodd" d="M19 15H5c-.551 0-1-.448-1-1V4.25l7.4 5.55a.995.995 0 001.2 0L20 4.25V14c0 .552-.449 1-1 1zm-.667-12L12 7.75 5.667 3h12.666zM19 1H5C3.346 1 2 2.346 2 4v10c0 1.654 1.346 3 3 3h14c1.654 0 3-1.346 3-3V4c0-1.654-1.346-3-3-3z" fill="#231F20"/><mask id="a" maskUnits="userSpaceOnUse" x="2" y="1" width="20" height="16"><path fill-rule="evenodd" clip-rule="evenodd" d="M19 15H5c-.551 0-1-.448-1-1V4.25l7.4 5.55a.995.995 0 001.2 0L20 4.25V14c0 .552-.449 1-1 1zm-.667-12L12 7.75 5.667 3h12.666zM19 1H5C3.346 1 2 2.346 2 4v10c0 1.654 1.346 3 3 3h14c1.654 0 3-1.346 3-3V4c0-1.654-1.346-3-3-3z" fill="#fff"/></mask><g mask="url(#a)"><path fill="#1098F7" d="M0-3h24v24H0z"/></g></svg>