<svg width="118" height="24" fill="none" xmlns="http://www.w3.org/2000/svg"><g clip-path="url(#clip0)"><path d="M33.343 17.956c-1.006.938-2.287 1.407-3.812 1.407a5.837 5.837 0 01-2.866-.72 9.21 9.21 0 002.5-6.312 9.186 9.186 0 00-2.5-6.312 5.838 5.838 0 012.866-.718c1.495 0 2.745.468 3.782 1.406 1.036.937 1.677 2.187 1.92 3.75h2.105c-.153-1.407-.58-2.657-1.281-3.782a7.532 7.532 0 00-2.745-2.562c-1.128-.594-2.378-.906-3.78-.906-1.586 0-2.989.375-4.24 1.156-.121.063-.213.156-.335.219a8.745 8.745 0 00-4.726-1.375h-.183V1.332h-2.104v1.906h-.092a8.833 8.833 0 00-4.513 1.25 5.631 5.631 0 00-.579-.344c-1.128-.593-2.378-.906-3.781-.906-1.586 0-2.989.375-4.239 1.156-1.25.782-2.226 1.844-2.927 3.219C1.112 8.988.746 10.55.746 12.3c0 1.75.366 3.344 1.067 4.719.701 1.375 1.677 2.469 2.927 3.25 1.25.78 2.653 1.187 4.239 1.187 1.372 0 2.622-.312 3.75-.906.214-.094.397-.219.58-.344 1.342.813 2.866 1.25 4.543 1.25h.092v1.75h2.104v-1.75h.183c1.738 0 3.354-.5 4.726-1.375.092.063.214.156.305.219 1.25.781 2.653 1.187 4.239 1.187 1.372 0 2.622-.312 3.75-.906 1.129-.594 2.044-1.468 2.745-2.562.701-1.094 1.128-2.375 1.311-3.781h-2.104c-.213 1.53-.823 2.78-1.86 3.718zm-8.325-.687a5.665 5.665 0 01-.854-1.313c-.518-1.062-.792-2.28-.792-3.624 0-1.376.274-2.594.793-3.657a7.51 7.51 0 01.823-1.28c1.25 1.25 2.012 3 2.012 4.937.061 1.937-.732 3.687-1.982 4.937zM9.01 19.363c-1.189 0-2.256-.313-3.171-.907-.915-.593-1.647-1.437-2.165-2.468-.518-1.063-.793-2.282-.793-3.625 0-1.375.275-2.594.793-3.656.518-1.063 1.25-1.907 2.165-2.469.915-.594 1.982-.875 3.171-.875.946 0 1.8.188 2.562.562a9.21 9.21 0 00-2.623 6.438 9.126 9.126 0 002.653 6.468 6.417 6.417 0 01-2.592.532zm8.843-.063a6.438 6.438 0 01-2.866-.656c.183-.219.335-.438.488-.656.701-1.094 1.128-2.375 1.311-3.782h-2.104c-.213 1.313-.701 2.407-1.433 3.282a6.972 6.972 0 01-2.226-5.125c0-2.031.854-3.844 2.195-5.125.763.875 1.25 1.937 1.464 3.25h2.104c-.152-1.406-.58-2.656-1.28-3.781a5.533 5.533 0 00-.489-.688 6.623 6.623 0 012.836-.625h.092V19.3h-.092zm2.196 0V5.394h.183c1.098 0 2.165.281 3.08.75a8.044 8.044 0 00-.946 1.469c-.701 1.375-1.067 2.937-1.067 4.687 0 1.75.366 3.344 1.067 4.719.275.562.61 1.062.976 1.5a6.807 6.807 0 01-3.08.75h-.213v.031z" fill="#1098F7"/></g><path d="M48.14 17.34a4.291 4.291 0 01-1.61-1.793 5.753 5.753 0 01-.598-2.546c0-.944.184-1.793.598-2.547.414-.755.92-1.32 1.61-1.745a4.407 4.407 0 012.348-.66c.782 0 1.473.188 2.117.518.644.33 1.15.85 1.519 1.462.368.614.598 1.32.69 2.075H52.79c-.138-.613-.368-1.084-.782-1.461a2.14 2.14 0 00-1.473-.567c-.46 0-.92.142-1.289.378-.368.236-.644.566-.874 1.037-.23.425-.322.944-.322 1.51 0 .566.092 1.037.322 1.509.23.424.506.802.874 1.037.369.236.783.378 1.289.378.598 0 1.105-.189 1.519-.566.414-.377.69-.85.782-1.462h2.025c-.046.801-.276 1.509-.69 2.122-.368.613-.92 1.085-1.519 1.462a4.544 4.544 0 01-2.117.519c-.92-.047-1.703-.236-2.393-.66zm10.632-.002c-.69-.424-1.242-1.037-1.657-1.792-.414-.754-.598-1.603-.598-2.547 0-.943.184-1.792.598-2.546.415-.755.967-1.368 1.657-1.793A4.407 4.407 0 0161.12 8c.875 0 1.657.236 2.348.66.69.425 1.242 1.038 1.657 1.793.414.754.598 1.603.598 2.546 0 .944-.184 1.793-.598 2.547-.415.755-.967 1.368-1.657 1.792-.69.425-1.473.66-2.348.66-.828-.047-1.61-.235-2.347-.66zm3.682-1.839c.368-.236.69-.613.92-1.038.23-.424.323-.943.323-1.462s-.092-1.037-.322-1.462c-.23-.424-.553-.802-.92-1.037a2.471 2.471 0 00-1.336-.378c-.506 0-.92.142-1.334.378-.368.236-.69.613-.92 1.037-.23.425-.323.943-.323 1.462 0 .52.092 1.038.322 1.462.23.425.507.802.92 1.038a2.47 2.47 0 001.335.377c.507 0 .967-.094 1.335-.377zm8.836 1.085c-.828 0-1.518-.142-2.116-.425a3.049 3.049 0 01-1.381-1.273 3.767 3.767 0 01-.506-1.934c0-.754.184-1.368.506-1.934.322-.566.782-.99 1.38-1.273.599-.283 1.29-.424 2.118-.424h.966V8.189h2.025V9.32h.967c.828 0 1.519.141 2.117.424a3.05 3.05 0 011.38 1.274c.323.565.507 1.179.507 1.933a3.76 3.76 0 01-.507 1.934 3.05 3.05 0 01-1.38 1.273c-.599.283-1.289.425-2.117.425h-.967v1.179h-2.025v-1.18h-.966zm.967-5.424h-.966c-.645 0-1.105.142-1.427.472-.322.283-.506.754-.506 1.273 0 .566.184.99.506 1.32.322.284.828.472 1.427.472h.966V11.16zm4.418 3.066c.323-.283.507-.755.507-1.321s-.184-.99-.507-1.273c-.322-.283-.828-.472-1.426-.472h-.967v3.537h.967c.598 0 1.058-.141 1.426-.471zm4.143-5.943h1.979v6.273L86.8 8.283h2.117v9.48h-1.98V11.49l-4.003 6.273h-2.117v-9.48zm11.827 9.057a4.291 4.291 0 01-1.61-1.793A5.752 5.752 0 0190.436 13c0-.943.184-1.792.599-2.547.368-.754.92-1.32 1.61-1.745a4.407 4.407 0 012.348-.66 4.55 4.55 0 012.117.519c.644.33 1.15.849 1.519 1.462.368.613.598 1.32.69 2.075h-2.025c-.138-.613-.368-1.085-.783-1.462a2.14 2.14 0 00-1.472-.566c-.46 0-.92.141-1.289.377-.368.236-.644.566-.874 1.038-.23.424-.323.943-.323 1.51 0 .565.092 1.037.323 1.508.23.425.506.802.874 1.038s.782.377 1.289.377c.598 0 1.104-.188 1.518-.566.415-.377.69-.849.783-1.462h2.025c-.046.802-.276 1.51-.69 2.123-.369.613-.921 1.084-1.52 1.462a4.545 4.545 0 01-2.116.518c-.92-.047-1.657-.235-2.394-.66zm8.699-5.19h3.544v1.698h-3.544V12.15zm5.615-3.867h3.36l2.025 6.886 2.025-6.886h3.313v9.48h-1.979V9.98l-2.255 7.782h-2.301l-2.255-7.782v7.782h-1.979v-9.48h.046z" fill="#111029"/><defs><clipPath id="clip0"><path fill="#fff" transform="translate(.57 .5)" d="M0 0h37v23H0z"/></clipPath></defs></svg>