<svg width="96" height="70" fill="none" xmlns="http://www.w3.org/2000/svg"><g clip-path="url(#clip0)"><path d="M2.954 69.182A5.738 5.738 0 01.8 66.785 7.691 7.691 0 010 63.38c0-1.261.246-2.396.8-3.405.554-1.01 1.23-1.766 2.154-2.334a5.892 5.892 0 013.138-.883c1.046 0 1.97.253 2.831.694.862.442 1.538 1.135 2.03 1.955.493.82.8 1.766.924 2.775H9.169c-.184-.82-.492-1.45-1.046-1.955a2.862 2.862 0 00-1.97-.757c-.615 0-1.23.19-1.722.505-.493.315-.862.756-1.17 1.387-.307.568-.43 1.261-.43 2.018 0 .757.123 1.387.43 2.018.308.568.677 1.072 1.17 1.388a3.094 3.094 0 001.723.504c.8 0 1.477-.252 2.03-.757a3.198 3.198 0 001.047-1.955h2.707c-.061 1.072-.369 2.018-.923 2.838-.492.82-1.23 1.45-2.03 1.955a6.077 6.077 0 01-2.831.694c-1.23-.063-2.277-.316-3.2-.883zm14.216-.002c-.924-.567-1.662-1.387-2.216-2.396-.554-1.01-.8-2.144-.8-3.406 0-1.26.246-2.396.8-3.405s1.292-1.829 2.215-2.396a5.893 5.893 0 013.139-.883c1.169 0 2.215.315 3.138.883.923.567 1.662 1.387 2.215 2.396.554 1.009.8 2.144.8 3.405 0 1.262-.246 2.397-.8 3.406-.553 1.009-1.292 1.829-2.215 2.396a5.892 5.892 0 01-3.138.883c-1.108-.063-2.154-.315-3.139-.883zm4.922-2.46c.493-.315.923-.82 1.231-1.387.308-.567.43-1.26.43-1.955 0-.693-.122-1.387-.43-1.955-.308-.567-.738-1.072-1.23-1.387a3.303 3.303 0 00-1.785-.504c-.677 0-1.231.189-1.785.504-.492.315-.923.82-1.23 1.387-.308.568-.431 1.262-.431 1.955 0 .694.123 1.388.43 1.955.308.568.677 1.072 1.231 1.388a3.303 3.303 0 001.785.504c.677 0 1.292-.126 1.784-.504zm11.816 1.451c-1.108 0-2.031-.189-2.831-.567A4.077 4.077 0 0129.23 65.9a5.037 5.037 0 01-.677-2.586c0-1.009.246-1.828.677-2.585a4.077 4.077 0 011.846-1.703c.8-.378 1.723-.568 2.83-.568H35.2v-1.513h2.708v1.514H39.2c1.108 0 2.03.189 2.83.567.8.378 1.416.946 1.847 1.703.43.757.677 1.576.677 2.585a5.037 5.037 0 01-.677 2.586 4.076 4.076 0 01-1.846 1.703c-.8.378-1.723.567-2.831.567h-1.292v1.577H35.2V68.17h-1.292zM35.2 60.92h-1.292c-.862 0-1.477.19-1.908.63-.43.379-.677 1.01-.677 1.703 0 .757.246 1.325.677 1.766.43.378 1.108.63 1.908.63H35.2V60.92zm5.908 4.1c.43-.38.677-1.01.677-1.767 0-.757-.246-1.324-.677-1.702-.431-.379-1.108-.631-1.908-.631h-1.292v4.73H39.2c.8 0 1.415-.19 1.908-.63zm5.538-7.948h2.646v8.388l5.354-8.388h2.83v12.676h-2.645V61.36l-5.354 8.388h-2.83V57.072zm15.816 12.109a5.738 5.738 0 01-2.154-2.396 7.691 7.691 0 01-.8-3.406c0-1.26.246-2.396.8-3.405.492-1.009 1.23-1.766 2.154-2.333a5.894 5.894 0 013.138-.883c1.046 0 1.97.252 2.83.693.862.442 1.54 1.136 2.031 1.955.493.82.8 1.766.924 2.775h-2.708c-.185-.82-.492-1.45-1.046-1.955a2.863 2.863 0 00-1.97-.757c-.615 0-1.23.19-1.723.505-.492.315-.861.757-1.169 1.387-.307.568-.43 1.262-.43 2.018 0 .757.123 1.388.43 2.018.308.568.677 1.072 1.17 1.388a3.094 3.094 0 001.723.504c.8 0 1.476-.252 2.03-.757a3.197 3.197 0 001.047-1.954h2.707c-.061 1.072-.37 2.018-.923 2.837-.492.82-1.23 1.45-2.03 1.955a6.077 6.077 0 01-2.831.694c-1.231-.063-2.216-.315-3.2-.883zm11.63-6.938h4.739v2.27h-4.739v-2.27zm7.508-5.171h4.492L88.8 66.28l2.708-9.207h4.43v12.676h-2.646V59.342l-3.015 10.406H87.2l-3.015-10.406v10.406h-2.647V57.072h.062z" fill="#111029"/><path d="M76.665 33.55c-2.031 1.891-4.616 2.837-7.693 2.837-2.153 0-4.061-.504-5.784-1.45a18.586 18.586 0 005.046-12.739c0-4.919-1.908-9.396-5.046-12.739 1.723-.945 3.63-1.45 5.784-1.45 3.016 0 5.539.946 7.631 2.838 2.092 1.892 3.385 4.414 3.877 7.567h4.246c-.308-2.837-1.17-5.36-2.585-7.63-1.415-2.207-3.261-3.91-5.538-5.171-2.277-1.199-4.8-1.83-7.63-1.83-3.2 0-6.032.758-8.554 2.334-.247.126-.431.315-.677.442a17.648 17.648 0 00-9.539-2.775h-.37V0h-4.245v3.847h-.185c-3.323 0-6.462.946-9.108 2.522-.369-.252-.8-.504-1.169-.693-2.277-1.199-4.8-1.83-7.63-1.83-3.2 0-6.031.758-8.554 2.334-2.523 1.577-4.493 3.72-5.908 6.496-1.416 2.774-2.154 5.928-2.154 9.46 0 3.53.738 6.747 2.154 9.522 1.415 2.774 3.385 4.982 5.908 6.558 2.523 1.577 5.353 2.397 8.553 2.397 2.77 0 5.293-.631 7.57-1.83.43-.188.8-.44 1.169-.693 2.707 1.64 5.785 2.523 9.17 2.523h.184v3.531h4.246v-3.531h.37c3.507 0 6.768-1.01 9.538-2.775.184.126.43.315.615.441 2.523 1.577 5.354 2.397 8.554 2.397 2.769 0 5.292-.631 7.569-1.83 2.277-1.197 4.123-2.963 5.538-5.17 1.416-2.208 2.277-4.793 2.647-7.631h-4.247c-.43 3.09-1.661 5.613-3.753 7.505zm-16.8-1.388c-.677-.757-1.231-1.64-1.724-2.648-1.046-2.145-1.6-4.604-1.6-7.316 0-2.775.554-5.234 1.6-7.378.493-.946 1.047-1.829 1.662-2.586 2.523 2.523 4.062 6.054 4.062 9.964.123 3.91-1.477 7.442-4 9.964zm-32.308 4.225c-2.4 0-4.554-.63-6.4-1.828-1.846-1.199-3.323-2.901-4.37-4.982-1.045-2.145-1.6-4.604-1.6-7.316 0-2.774.555-5.234 1.6-7.378 1.047-2.144 2.524-3.847 4.37-4.982 1.846-1.198 4-1.766 6.4-1.766 1.908 0 3.63.379 5.17 1.135a18.588 18.588 0 00-5.293 12.991c0 5.108 2.03 9.712 5.354 13.054a12.952 12.952 0 01-5.231 1.072zm17.846-.126c-2.03 0-4-.441-5.785-1.324.37-.441.677-.883.985-1.324 1.416-2.208 2.277-4.793 2.646-7.631h-4.246c-.43 2.649-1.415 4.856-2.892 6.622a14.07 14.07 0 01-4.492-10.343c0-4.099 1.723-7.756 4.43-10.342 1.539 1.766 2.523 3.91 2.954 6.558h4.246c-.308-2.837-1.169-5.36-2.584-7.63a11.15 11.15 0 00-.985-1.388c1.723-.82 3.692-1.26 5.723-1.26h.185V36.26h-.185zm4.43 0V8.198h.37c2.215 0 4.37.568 6.215 1.514-.738.883-1.353 1.892-1.907 2.964-1.416 2.774-2.154 5.928-2.154 9.46 0 3.53.738 6.747 2.154 9.522a14.916 14.916 0 001.969 3.027c-1.846.946-4 1.513-6.215 1.513h-.431v.063z" fill="#1098F7"/></g><defs><clipPath id="clip0"><path fill="#fff" d="M0 0h96v70H0z"/></clipPath></defs></svg>