<svg width="242" height="960" fill="none" xmlns="http://www.w3.org/2000/svg"><path d="M241.417 0v240" stroke="#E1E1EA" stroke-width="1.139" stroke-miterlimit="10"/><path d="M241.417 240c-13.6 0-27-1.2-40-3.3m0 0V0m0 236.7c-13.8-2.3-27.1-5.8-40-10.3V0v226.3c-14-4.9-27.4-11.1-40-18.4m0 0V0m0 207.9c-14.3-8.3-27.7-18-40-29m0 0V0m0 178.9c-15.2-13.6-28.7-29.1-40-46.2m0 0V0m0 132.7c-25.3-38-40-83.6-40-132.7m0 360c0-66.3 53.7-120 120-120s120 53.7 120 120" stroke="#E1E1EA" stroke-width="1.144" stroke-miterlimit="10"/><path d="M1.417 240h240m-240 120h240m-240 60h240" stroke="#E1E1EA" stroke-width="1.139" stroke-miterlimit="10"/><path d="M241.417 600c0 66.3-53.7 120-120 120" stroke="#E1E1EA" stroke-width="1.144" stroke-miterlimit="10"/><path d="M121.417 480v240m0-120h119.9m-59.9-.1V480m-180 0h240m0 240v240m-240-240h240m-240 200h240m-240-40h240m-240-40h240m-240-40h240m-240-40h240" stroke="#E1E1EA" stroke-width="1.139" stroke-miterlimit="10"/></svg>