<svg width="242" height="960" fill="none" xmlns="http://www.w3.org/2000/svg"><path d="M241.417 0c0 132.5-107.5 240-240 240" stroke="#E1E1EA" stroke-width="1.144" stroke-miterlimit="10"/><path d="M1.417 240v240m0-240h240m-169.4 238.9c25-69.3 91.4-118.9 169.4-118.9m-160 97.5v22.4m20 0v-53m20 53v-74.1m20 74.1v-89.6m20 89.6V378.7m20 101.2V370.3m20 109.6V364.5m20 115.4V361.1M1.417 480v240m0-120h240m-240-120h240m0 240c-99.4 0-180-80.6-180-180 0-21.5 3.8-42 10.6-61.1M1.417 720h240m-240 120h240m-240 120c0-13.6 1.2-27 3.3-40m104-160c38-25.3 83.6-40 132.7-40M4.717 920c2.3-13.8 5.8-27.1 10.3-40m47.5-80c-20.7 23.1-36.9 50.2-47.5 80m93.7-120c-17.1 11.3-32.6 24.8-46.2 40m0 0h-61.1m107.3-40H1.417" stroke="#E1E1EA" stroke-width="1.139" stroke-miterlimit="10"/></svg>